<?xml version="1.0" encoding="UTF-8"?><svg xmlns="http://www.w3.org/2000/svg" viewBox="0 0 19.35 20.69"><defs><style>.d{stroke-width:.16px;}.d,.e{fill:#fff;}.d,.f{stroke:#000;stroke-miterlimit:10;}.f{fill:none;stroke-width:.16px;}</style></defs><g id="a"/><g id="b"><g id="c"><g><path class="d" d="M16.49,19.76V5.23c.16,0,.32,0,.49,0,.15,0,.41-.03,.66-.22,.51-.39,.5-1.13,.51-1.41,.01-.98-.58-1.58-.67-1.66-.31-.25-.79-.59-1.41-.89-.41-.2-1.25-.57-3.46-.81-1.3-.14-2.24-.15-3.57-.15-1.18,0-1.97,0-3.07,.12-1.06,.12-1.69,.28-2.44,.46-.58,.14-.94,.26-1.34,.46-.53,.27-.93,.58-1.2,.82-.07,.04-.78,.43-.89,1.29-.1,.72,.28,1.46,.93,1.81,.11,.06,.25,.12,.42,.15,.29,.06,.51,0,.56,0h.03v14.56"/><g><path class="e" d="M3.02,20.61V5.79h-.08c-.14,.01-.23,.03-.33,.03-.07,0-.16,0-.25-.02-.14-.03-.28-.08-.41-.15-.62-.34-1-1.06-.9-1.77,.11-.83,.79-1.21,.87-1.25,.39-.34,.79-.62,1.22-.83,.38-.19,.72-.31,1.35-.46,.75-.19,1.39-.35,2.47-.47,.89-.1,1.57-.12,2.46-.12h.66c1.33,0,2.29,.02,3.62,.16,2.35,.25,3.18,.66,3.5,.81,.5,.24,.98,.55,1.42,.9,.11,.1,.67,.7,.65,1.63,0,.32-.01,1.01-.49,1.38-.17,.13-.39,.2-.62,.21h-.58v14.78H3.02Z"/><path d="M9.41,.82h.66c1.33,0,2.29,.01,3.61,.16,2.34,.25,3.16,.66,3.47,.81,.49,.24,.97,.54,1.4,.88,.11,.11,.65,.68,.63,1.6,0,.29-.01,.95-.45,1.29-.16,.12-.35,.19-.57,.19h-.66v14.78H3.1V5.87l-.03-.16h-.16s-.04,0-.07,0c-.05,0-.13,.02-.23,.02-.07,0-.15,0-.24-.02-.13-.03-.26-.07-.39-.14-.6-.32-.95-1.01-.86-1.68,.1-.78,.75-1.15,.86-1.21,.36-.32,.76-.6,1.19-.81,.37-.19,.71-.3,1.33-.46,.74-.19,1.39-.35,2.46-.47,.88-.1,1.57-.12,2.45-.12m0-.16c-.87,0-1.57,.02-2.47,.12-1.08,.12-1.72,.28-2.48,.47-.59,.15-.96,.26-1.37,.47-.54,.27-.95,.59-1.22,.83-.07,.04-.79,.44-.91,1.31-.1,.73,.28,1.49,.94,1.85,.11,.06,.25,.12,.43,.16,.1,.02,.19,.03,.27,.03,.16,0,.27-.03,.3-.03h.03v14.82h14.72V5.91c.16,0,.33,0,.5,0,.15,0,.42-.04,.67-.22,.52-.4,.51-1.15,.52-1.44,.01-.99-.59-1.6-.68-1.69-.32-.25-.8-.6-1.44-.91-.41-.2-1.28-.58-3.52-.82-1.32-.14-2.28-.15-3.63-.16-.23,0-.45,0-.66,0h0Z"/></g><line class="f" x1="13.45" y1="19.77" x2="16.66" y2="19.77"/><line class="f" x1="16.67" y1="16.13" x2="16.66" y2="19.85"/><line class="f" x1="2.99" y1="20.63" x2="2" y2="19.69"/></g></g></g></svg>